<svg version="1.2" xmlns="http://www.w3.org/2000/svg" viewBox="0 0 70 70" width="70" height="70">
	<title>New Project</title>
	<style>
		.s0 { fill: #f7e230 } 
	</style>
	<path id="js-square-brands" fill-rule="evenodd" class="s0" d="m66.7 10.1v49.3c0 3.7-3 6.7-6.7 6.7h-49.3c-3.7 0-6.7-3-6.7-6.7v-49.3c0-3.7 3-6.7 6.7-6.7h49.3c3.7 0 6.7 3 6.7 6.7zm-28.6 22.1h-5.9v20c0 3-1.2 3.7-3.1 3.7c-2.1 0-2.9-1.3-3.8-3l-4.8 2.9c1.4 3 4.1 5.4 8.8 5.4c5.2 0 8.8-2.8 8.8-8.9zm23.7 20.8c0-4.9-2.8-7.1-7.8-9.3l-1.5-0.6c-2.5-1.1-3.6-1.8-3.6-3.6c0-1.4 1.1-2.5 2.8-2.5c1.7 0 2.8 0.7 3.8 2.5l4.6-2.9c-2-3.4-4.6-4.7-8.4-4.7c-5.2 0-8.6 3.3-8.6 7.8c0 4.8 2.8 7 7.1 8.8l1.4 0.7c2.7 1.2 4.3 1.9 4.3 3.9c0 1.7-1.5 2.9-4 2.9c-2.9 0-4.5-1.5-5.8-3.6l-4.8 2.8c1.7 3.4 5.3 6 10.7 6c5.6 0 9.8-2.9 9.8-8.2z" />
</svg>