<svg xmlns="http://www.w3.org/2000/svg" width="370.016" height="82.486" viewBox="0 0 370.016 82.486">
  <g id="Group_9557" data-name="Group 9557" transform="translate(-355.285 -346.882)">
    <g id="Group_9554" data-name="Group 9554" transform="translate(366.655 380.724)">
      <g id="Group_9553" data-name="Group 9553" transform="translate(0 0)">
        <g id="Group_9552" data-name="Group 9552">
          <g id="Group_9551" data-name="Group 9551">
            <path id="Path_11827" data-name="Path 11827" d="M437,463.595c-.971-.86-2.205-1.009-4.665-1.307a22.764,22.764,0,0,0-9.749,1.033,23.474,23.474,0,0,0-4.665,2.129q-1.614.029-3.229.067a23.559,23.559,0,0,0-5.833-2.542,23.9,23.9,0,0,0-8.989-.754c-.432.144-4.54.389-5.631,4.391-1.331,4.886,3.185,10.022,3.777,10.5a11.029,11.029,0,0,0,5.766,2.335,9.7,9.7,0,0,0,11.185-9.475h2.479a10.514,10.514,0,0,0,3.632,7.14,10.348,10.348,0,0,0,6.587,2.268,10.075,10.075,0,0,0,8.442-3.916C438.783,471.883,439.667,465.954,437,463.595Zm-25.945,8.715a7.855,7.855,0,0,1-3.777,3.844,7.637,7.637,0,0,1-8.989-3.3c-1.624-2.772-1.34-5.54-.788-6.28a3.451,3.451,0,0,1,1.73-1.062,26.468,26.468,0,0,1,8.393.413c3.608.74,4.2,1.7,4.392,2.124C412.637,469.437,411.719,471.1,411.051,472.31Zm23.028.548a7.641,7.641,0,0,1-8.994,3.3,8.166,8.166,0,0,1-3.9-3.815c-.668-1.211-1.461-2.9-.836-4.286.192-.428.783-1.384,4.392-2.124a26.447,26.447,0,0,1,8.389-.413,3.462,3.462,0,0,1,1.734,1.062C435.415,467.318,435.7,470.086,434.08,472.858Z" transform="translate(-393.991 -462.087)" fill="#343434"/>
          </g>
        </g>
      </g>
    </g>
    <text id="_" data-name="(" transform="translate(394.158 413.006) rotate(-90)" fill="#343434" font-size="23" font-family="Montserrat-Bold, Montserrat" font-weight="700"><tspan x="0" y="0">(</tspan></text>
    <path id="Path_11828" data-name="Path 11828" d="M447.681,597.525l-9.752-4.167V603.44l9.752-4.168,9.752,4.168V593.357Z" transform="translate(-58.367 -174.072)" fill="#0d6efd"/>
    <path id="Path_11831" data-name="Path 11831" d="M23.184,0,17.178-8.61a11.2,11.2,0,0,1-1.134.042H9.408V0H3.948V-29.4h12.1A16.276,16.276,0,0,1,22.7-28.14a9.68,9.68,0,0,1,4.347,3.612,10.105,10.105,0,0,1,1.512,5.586,9.961,9.961,0,0,1-1.617,5.712A9.621,9.621,0,0,1,22.3-9.66L29.064,0Zm-.126-18.942a5.27,5.27,0,0,0-1.848-4.326,8.387,8.387,0,0,0-5.418-1.512H9.408v11.718h6.384A8.3,8.3,0,0,0,21.21-14.6,5.331,5.331,0,0,0,23.058-18.942ZM40.824-22.68q4.956,0,7.581,2.373t2.625,7.161V0H46.074V-2.73A6.108,6.108,0,0,1,43.323-.483a10.754,10.754,0,0,1-4.3.777,10.547,10.547,0,0,1-4.41-.861,6.814,6.814,0,0,1-2.919-2.394A6.075,6.075,0,0,1,30.66-6.426a5.939,5.939,0,0,1,2.247-4.851Q35.154-13.1,39.984-13.1h5.8v-.336a4.6,4.6,0,0,0-1.407-3.612,6.087,6.087,0,0,0-4.179-1.26,12.063,12.063,0,0,0-3.717.588,9.131,9.131,0,0,0-3.087,1.638l-2.058-3.822a12.744,12.744,0,0,1,4.242-2.058A18.874,18.874,0,0,1,40.824-22.68ZM40.11-3.528a6.779,6.779,0,0,0,3.507-.9A4.913,4.913,0,0,0,45.78-7.014v-2.6H40.362q-4.536,0-4.536,2.982A2.677,2.677,0,0,0,36.96-4.368,5.2,5.2,0,0,0,40.11-3.528ZM53.76,8.442a8.264,8.264,0,0,1-5.04-1.3l1.512-3.906a4.978,4.978,0,0,0,3.066.882,2.8,2.8,0,0,0,2.247-.9A3.989,3.989,0,0,0,56.322.546V-22.428h5.25V.42A8.134,8.134,0,0,1,59.514,6.3,7.6,7.6,0,0,1,53.76,8.442Zm5.166-34.566a3.372,3.372,0,0,1-2.394-.9,2.95,2.95,0,0,1-.966-2.247,2.95,2.95,0,0,1,.966-2.247,3.372,3.372,0,0,1,2.394-.9,3.467,3.467,0,0,1,2.394.861,2.775,2.775,0,0,1,.966,2.163,3.167,3.167,0,0,1-.945,2.331A3.27,3.27,0,0,1,58.926-26.124Zm7.854,3.7h5.25V0H66.78Zm2.646-3.7a3.372,3.372,0,0,1-2.394-.9,2.95,2.95,0,0,1-.966-2.247,2.95,2.95,0,0,1,.966-2.247,3.372,3.372,0,0,1,2.394-.9,3.467,3.467,0,0,1,2.394.861,2.775,2.775,0,0,1,.966,2.163,3.167,3.167,0,0,1-.945,2.331A3.27,3.27,0,0,1,69.426-26.124ZM89.964-22.68a9.372,9.372,0,0,1,6.8,2.478q2.562,2.478,2.562,7.35V0H94.08V-12.18a6.3,6.3,0,0,0-1.386-4.431A5.125,5.125,0,0,0,88.746-18.1a6.061,6.061,0,0,0-4.578,1.743,6.948,6.948,0,0,0-1.68,5.019V0h-5.25V-22.428h5v2.9a8.208,8.208,0,0,1,3.276-2.352A11.789,11.789,0,0,1,89.964-22.68Zm36.54-8.484V0h-5.04V-2.9A8.123,8.123,0,0,1,118.251-.5a10.85,10.85,0,0,1-4.221.8,11.819,11.819,0,0,1-5.817-1.428,10.261,10.261,0,0,1-4.053-4.053,12.124,12.124,0,0,1-1.47-6.027,12.007,12.007,0,0,1,1.47-6.006,10.3,10.3,0,0,1,4.053-4.032,11.819,11.819,0,0,1,5.817-1.428,10.662,10.662,0,0,1,4.074.756,8.2,8.2,0,0,1,3.15,2.268V-31.164ZM114.66-4.2a6.752,6.752,0,0,0,3.4-.861,6.222,6.222,0,0,0,2.394-2.457,7.517,7.517,0,0,0,.882-3.7,7.517,7.517,0,0,0-.882-3.7,6.222,6.222,0,0,0-2.394-2.457,6.752,6.752,0,0,0-3.4-.861,6.752,6.752,0,0,0-3.4.861,6.222,6.222,0,0,0-2.394,2.457,7.517,7.517,0,0,0-.882,3.7,7.517,7.517,0,0,0,.882,3.7,6.222,6.222,0,0,0,2.394,2.457A6.752,6.752,0,0,0,114.66-4.2ZM152.8-11.088q0,.546-.084,1.554h-17.6a6.1,6.1,0,0,0,2.415,3.927,7.916,7.916,0,0,0,4.851,1.449,8.175,8.175,0,0,0,6.09-2.436l2.814,3.234a9.481,9.481,0,0,1-3.822,2.73,13.921,13.921,0,0,1-5.208.924,13.86,13.86,0,0,1-6.51-1.47A10.587,10.587,0,0,1,131.4-5.271a11.564,11.564,0,0,1-1.533-5.943,11.735,11.735,0,0,1,1.491-5.9,10.576,10.576,0,0,1,4.137-4.095,12.071,12.071,0,0,1,5.964-1.47,11.767,11.767,0,0,1,5.859,1.449,10.262,10.262,0,0,1,4.032,4.074A12.353,12.353,0,0,1,152.8-11.088Zm-11.34-7.392a6.333,6.333,0,0,0-4.263,1.491,6.272,6.272,0,0,0-2.121,3.969H147.8a6.189,6.189,0,0,0-2.058-3.948A6.259,6.259,0,0,0,141.456-18.48Zm19.7-.672q2.268-3.528,7.98-3.528v5a6.665,6.665,0,0,0-1.218-.126,6.341,6.341,0,0,0-4.788,1.785,7.119,7.119,0,0,0-1.722,5.145V0h-5.25V-22.428h5ZM191.478.252A18.886,18.886,0,0,1,185.2-.8a11.538,11.538,0,0,1-4.641-2.772l1.218-2.394a11.662,11.662,0,0,0,4.242,2.583,15.5,15.5,0,0,0,5.46.987q3.948,0,5.922-1.449A4.463,4.463,0,0,0,199.374-7.6a3.761,3.761,0,0,0-1.071-2.814,7.23,7.23,0,0,0-2.625-1.617,42.453,42.453,0,0,0-4.326-1.239,45.449,45.449,0,0,1-5.292-1.617,8.689,8.689,0,0,1-3.381-2.373,6.309,6.309,0,0,1-1.407-4.326,7.333,7.333,0,0,1,1.176-4.053,8.055,8.055,0,0,1,3.612-2.919,14.785,14.785,0,0,1,6.048-1.092,17.8,17.8,0,0,1,4.935.693,14.182,14.182,0,0,1,4.179,1.911l-1.05,2.478a14.451,14.451,0,0,0-3.948-1.827,14.735,14.735,0,0,0-4.116-.609,9.5,9.5,0,0,0-5.817,1.491,4.626,4.626,0,0,0-1.953,3.843,3.832,3.832,0,0,0,1.071,2.835A7.016,7.016,0,0,0,188.1-17.2q1.617.567,4.347,1.239a43.735,43.735,0,0,1,5.229,1.575,8.582,8.582,0,0,1,3.381,2.352A6.224,6.224,0,0,1,202.44-7.77a7.239,7.239,0,0,1-1.2,4.053,8.045,8.045,0,0,1-3.675,2.9A15.351,15.351,0,0,1,191.478.252Zm15.414-22.344h2.982V0h-2.982Zm1.512-4.83a2.112,2.112,0,0,1-1.554-.63,2.062,2.062,0,0,1-.63-1.512,2.015,2.015,0,0,1,.63-1.47,2.111,2.111,0,0,1,1.554-.63,2.15,2.15,0,0,1,1.554.609,1.947,1.947,0,0,1,.63,1.449,2.112,2.112,0,0,1-.63,1.554A2.112,2.112,0,0,1,208.4-26.922Zm19.362,4.662a9.027,9.027,0,0,1,6.615,2.415q2.457,2.415,2.457,7.035V0h-2.982V-12.516a7.323,7.323,0,0,0-1.722-5.25,6.469,6.469,0,0,0-4.914-1.806,7.548,7.548,0,0,0-5.649,2.121,8.011,8.011,0,0,0-2.079,5.859V0H216.51V-22.092h2.856v4.074a8.3,8.3,0,0,1,3.381-3.129A10.822,10.822,0,0,1,227.766-22.26Zm36.036.168v19.4q0,5.628-2.751,8.337t-8.295,2.709a18.534,18.534,0,0,1-5.817-.9,11.963,11.963,0,0,1-4.473-2.5l1.512-2.268a11.349,11.349,0,0,0,3.885,2.226,14.5,14.5,0,0,0,4.809.8q4.2,0,6.174-1.953T260.82-2.31V-5.124a8.988,8.988,0,0,1-3.633,3.192A11.234,11.234,0,0,1,252.21-.84,11.745,11.745,0,0,1,246.561-2.2a10.079,10.079,0,0,1-3.99-3.822,10.747,10.747,0,0,1-1.449-5.565,10.635,10.635,0,0,1,1.449-5.544,10.013,10.013,0,0,1,3.969-3.78,11.858,11.858,0,0,1,5.67-1.344,11.205,11.205,0,0,1,5.082,1.134,9.159,9.159,0,0,1,3.654,3.276v-4.242ZM252.5-3.486a9.057,9.057,0,0,0,4.326-1.029,7.433,7.433,0,0,0,3-2.877,8.222,8.222,0,0,0,1.071-4.2,8.108,8.108,0,0,0-1.071-4.179,7.51,7.51,0,0,0-2.982-2.856,9.023,9.023,0,0,0-4.347-1.029,9.085,9.085,0,0,0-4.3,1.008,7.326,7.326,0,0,0-2.982,2.856,8.222,8.222,0,0,0-1.071,4.2,8.222,8.222,0,0,0,1.071,4.2A7.467,7.467,0,0,0,248.2-4.515,8.934,8.934,0,0,0,252.5-3.486ZM281.736-22.26a9.027,9.027,0,0,1,6.615,2.415q2.457,2.415,2.457,7.035V0h-2.982V-12.516a7.323,7.323,0,0,0-1.722-5.25,6.469,6.469,0,0,0-4.914-1.806,7.548,7.548,0,0,0-5.649,2.121,8.011,8.011,0,0,0-2.079,5.859V0H270.48V-31.164h2.982v12.936a8.085,8.085,0,0,1,3.36-2.982A11.026,11.026,0,0,1,281.736-22.26Z" transform="translate(434.493 410.345)" fill="#343434"/>
    <g id="Group_9556" data-name="Group 9556" transform="translate(374.974 386.949)">
      <g id="Group_9555" data-name="Group 9555" transform="translate(0)">
        <path id="Path_11829" data-name="Path 11829" d="M426.978,487.809a2.628,2.628,0,0,1-1.967.795,2.581,2.581,0,0,1-1.927-.795,2.634,2.634,0,0,1-.775-1.907,2.538,2.538,0,0,1,.755-1.867,2.637,2.637,0,0,1,1.947-.755,2.665,2.665,0,0,1,1.967.775,2.522,2.522,0,0,1,.775,1.847A2.634,2.634,0,0,1,426.978,487.809Zm22.71,0a2.627,2.627,0,0,1-1.966.795,2.58,2.58,0,0,1-1.927-.795,2.634,2.634,0,0,1-.775-1.907,2.539,2.539,0,0,1,.755-1.867,2.637,2.637,0,0,1,1.947-.755,2.664,2.664,0,0,1,1.966.775,2.522,2.522,0,0,1,.775,1.847A2.633,2.633,0,0,1,449.689,487.809Z" transform="translate(-422.31 -483.28)" fill="#343434"/>
      </g>
    </g>
    <path id="Path_11830" data-name="Path 11830" d="M421.4,391.932q-2.931,0-2.931-3.322V371.363c-.189-21.5-18.945-21.822-19.8-22.279-5.878-3.149-16.407-2.83-21.573.378-.1.059-16.08,2.725-16.985,17.132a65.342,65.342,0,0,0-.776,7.945V388.61q0,3.322-2.931,3.322h-1.118v2.8H356.4c1.954,0,2.455,1.209,2.931,3.387l4.593,20.207c1.374,6,2.67,7.816,8.011,7.816h2.084v-2.8h-1.889c-3.3,0-4.139-2.124-4.95-5.276l-4.593-19.882a20.157,20.157,0,0,0-.651-3.224,3.151,3.151,0,0,0-2.019-1.6,3.871,3.871,0,0,0,2.019-1.6,6.346,6.346,0,0,0,.651-3.224V378.029a42.279,42.279,0,0,1,3.872-9.158c1.108-1.821,3.539-2.046,5.592-1.455,6.922,1.993,16.23,3.711,34,.56a5.869,5.869,0,0,1,4.174,1.089c2.722,2.25,3.94,4.562,4.975,9.088v10.393a6.345,6.345,0,0,0,.652,3.224,3.869,3.869,0,0,0,2.019,1.6,3.15,3.15,0,0,0-2.019,1.6,20.124,20.124,0,0,0-.652,3.224l-4.593,19.882c-.811,3.152-1.65,5.276-4.95,5.276h-1.889v2.8h2.084c5.341,0,6.637-1.816,8.011-7.816l4.593-20.207c.475-2.178.977-3.387,2.931-3.387h1.118v-2.8Z" fill="#343434"/>
  </g>
</svg>
