<svg version="1.2" xmlns="http://www.w3.org/2000/svg" viewBox="0 0 70 70" width="70" height="70">
	<title>New Project</title>
	<style>
		.s0 { fill: #39aed9 } 
	</style>
	<path id="react-brands" fill-rule="evenodd" class="s0" d="m66.1 35.3c0 3.8-5 7.5-11.9 9.8q-0.6 0.2-1.1 0.3q0.2 0.9 0.3 1.6c1.4 6.9 0.3 12.6-2.9 14.4c-3.1 1.8-8.1 0-13.2-4.4q-0.9-0.7-1.7-1.4q-0.6 0.6-1.2 1.1c-5.3 4.6-10.7 6.5-13.9 4.7c-3.1-1.8-4.1-7.1-2.9-13.7q0.2-1.1 0.5-2.1q-0.8-0.3-1.6-0.5c-6.6-2.3-11.5-6-11.5-9.8c0-3.6 4.6-7 10.9-9.2q1.1-0.4 2.3-0.8q-0.3-0.9-0.5-1.9c-1.3-6.8-0.4-12.1 2.8-14c3.2-1.9 8.6 0.2 14.1 5q0.5 0.4 1 0.9q0.7-0.7 1.5-1.4c5.1-4.5 10.2-6.3 13.4-4.5c3.2 1.8 4.2 7.6 2.7 14.7q-0.1 0.6-0.3 1.3q1 0.3 2 0.6c6.5 2.2 11.2 5.7 11.2 9.3zm-28.8-18.2q2.8 3 5.1 6.4q4.1 0.3 8 1.2q0.2-0.5 0.3-1.2c1.3-6.1 0.5-10.8-1.5-11.9c-1.9-1.1-6 0.4-10.5 4.3q-0.7 0.6-1.4 1.2zm-14.1 21.3q-1.1 2.7-1.9 5.3q2.7 0.6 5.5 0.9q-1-1.5-1.9-3.1q-0.8-1.5-1.7-3.1zm0-6q0.8-1.6 1.7-3.1q0.9-1.6 1.9-3q-2.9 0.3-5.5 0.9q0.8 2.5 1.9 5.2zm4 7.8q1.3 2.4 2.9 4.7q2.6 0.2 5.4 0.2q2.9 0 5.5-0.2q1.6-2.3 2.9-4.7q1.4-2.4 2.6-4.8q-1.2-2.5-2.6-4.9q-1.4-2.3-2.9-4.6q-2.7-0.2-5.5-0.2q-2.8 0-5.4 0.2q-1.6 2.3-3 4.7q-1.3 2.3-2.5 4.8q1.2 2.5 2.6 4.8zm17.1 4.4q2.8-0.4 5.6-1q-0.9-2.7-2-5.3q-0.9 1.6-1.8 3.2q-0.9 1.6-1.8 3.1zm5.5-17.4q-2.6-0.6-5.5-0.9q0.9 1.4 1.8 3q0.9 1.5 1.7 3.1q1.1-2.5 2-5.2zm-17.8-4q3.5-0.1 7.1 0q-1.7-2.2-3.5-4.2q-1.8 1.9-3.6 4.2zm-11.8-0.3q0.2 0.9 0.4 1.8q4-0.9 8-1.2q2.4-3.4 5.2-6.4q-0.5-0.4-0.9-0.8c-4.7-4.1-9.2-5.8-11.2-4.6c-1.9 1-2.6 5.4-1.5 11.2zm1.6 12.5q-1.7-3.7-3-7.6q-1 0.3-2 0.7c-5.5 1.9-9.2 4.7-9.2 6.8c0.2 1.5 1 2.8 2.2 3.6c2.1 1.7 5 2.9 7.5 3.7q0.7 0.3 1.5 0.5q1.2-4 3-7.7zm12 18.3q-2.7-3-5.1-6.3q-4.1-0.4-8.1-1.2q-0.2 1-0.4 2c-1.1 5.6-0.3 9.8 1.6 10.9c1.3 0.6 2.9 0.5 4.2-0.1c2.5-1 4.7-2.4 6.7-4.2q0.6-0.5 1.1-1.1zm5.4-6.2q-1.8 0.1-3.7 0.1q-1.8 0-3.5 0q1.8 2.3 3.6 4.3q1.9-2.1 3.6-4.4zm11.7 0.1q-0.1-0.8-0.3-1.5q-4 0.9-8.1 1.3q-2.3 3.3-5.1 6.3q0.8 0.8 1.5 1.4c4.4 3.8 8.4 5.2 10.3 4.1c1.2-0.9 1.9-2.3 2-3.7c0.4-2.7 0.3-5.4-0.3-7.9zm12.6-12.3c0-2.2-3.9-5-9.5-6.9q-0.8-0.3-1.8-0.6q-1.2 3.9-2.9 7.5q1.8 3.7 3.1 7.7q0.5-0.2 1-0.4c5.9-1.9 10.1-4.9 10.1-7.3zm-33.4 0.1c0-3 2.4-5.5 5.4-5.5c3 0 5.5 2.5 5.5 5.5c0 3-2.5 5.5-5.5 5.5c-3 0-5.4-2.5-5.4-5.5z" />
</svg>