<svg version="1.2" xmlns="http://www.w3.org/2000/svg" viewBox="0 0 70 70" width="70" height="70">
	<title>New Project</title>
	<style>
		.s0 { fill: #3680a7 } 
	</style>
	<path id="wordpress-brands" fill-rule="evenodd" class="s0" d="m66.9 35.1c0 17.7-14.3 32-31.9 32c-17.7 0-32-14.3-32-32c0-17.6 14.3-31.9 32-31.9c17.6 0 31.9 14.3 31.9 31.9zm-1.4 0c0-16.8-13.7-30.5-30.5-30.5c-16.9 0-30.5 13.7-30.5 30.5c0 16.9 13.7 30.5 30.5 30.5c16.8 0 30.5-13.6 30.5-30.5zm-21.6 25.5q0 0.2 0.2 0.4c-2.9 1-5.9 1.6-9.1 1.6c-2.7 0-5.3-0.4-7.8-1.2l8.2-23.9zm18.6-25.5c0 10.2-5.5 19-13.7 23.7l8.4-24.2c1.6-3.9 2.1-7 2.1-9.8q0-1.5-0.2-2.8c2.1 3.9 3.4 8.4 3.4 13.1zm-52.5-11.1l13.1 35.8c-9.2-4.4-15.5-13.8-15.5-24.7c0-3.9 0.9-7.7 2.4-11.1zm41.5 18.6l-2.8 9.2l-9.9-29.5c1.7-0.1 3.2-0.3 3.2-0.3c1.4-0.1 1.3-2.3-0.2-2.2c0 0-4.5 0.3-7.3 0.3c-2.7 0-7.2-0.3-7.2-0.3c-1.5-0.1-1.7 2.1-0.2 2.2c0 0 1.4 0.2 2.9 0.3l4.2 11.7l-6 18l-10-29.7c1.7-0.1 3.2-0.3 3.2-0.3c1.4-0.1 1.3-2.3-0.2-2.2c0 0-4.5 0.3-7.3 0.3q-0.8 0-1.8 0c4.9-7.5 13.4-12.4 22.9-12.4c7.2 0 13.7 2.7 18.6 7.2q-0.2 0-0.4 0c-2.7 0-4.6 2.3-4.6 4.9c0 2.2 1.3 4.1 2.7 6.4c1 1.8 2.2 4.2 2.2 7.6c0 2.3-0.9 5-2 8.8z" />
</svg>